<svg width="92" height="49" viewBox="0 0 92 49" fill="none" xmlns="http://www.w3.org/2000/svg">
<path d="M2.49375 49C1.98042 49 1.53709 48.8133 1.16375 48.44C0.790421 48.0667 0.603754 47.6233 0.603754 47.11V1.89C0.603754 1.37667 0.790421 0.933332 1.16375 0.559998C1.53709 0.186664 1.98042 -3.33786e-06 2.49375 -3.33786e-06H22.6538C27.0871 -3.33786e-06 31.0304 0.746663 34.4838 2.24C37.9371 3.73333 40.6904 5.92666 42.7438 8.82C44.7971 11.7133 45.8938 15.19 46.0338 19.25C46.1271 21.8633 46.1738 23.6367 46.1738 24.57C46.1738 25.4567 46.1271 27.16 46.0338 29.68C45.7538 36.12 43.5604 40.95 39.4538 44.17C35.3938 47.39 29.9104 49 23.0038 49H2.49375ZM22.6538 35.35C24.2871 35.35 25.5938 34.8833 26.5738 33.95C27.6004 32.97 28.1604 31.5467 28.2538 29.68C28.3471 28.3267 28.3938 26.5767 28.3938 24.43C28.3938 22.2367 28.3471 20.51 28.2538 19.25C28.1604 17.3833 27.5538 15.9833 26.4338 15.05C25.3604 14.1167 23.9838 13.65 22.3038 13.65H18.1038V35.35H22.6538Z" fill="#233F88"/>
<path d="M54.3102 49C53.7968 49 53.3535 48.8133 52.9802 48.44C52.6068 48.0667 52.4202 47.6233 52.4202 47.11V1.89C52.4202 1.37667 52.6068 0.933332 52.9802 0.559998C53.3535 0.186664 53.7968 -3.33786e-06 54.3102 -3.33786e-06H68.3102C68.8235 -3.33786e-06 69.2668 0.186664 69.6402 0.559998C70.0135 0.933332 70.2002 1.37667 70.2002 1.89V34.65H89.5902C90.1035 34.65 90.5468 34.8367 90.9202 35.21C91.2935 35.5833 91.4802 36.0267 91.4802 36.54V47.11C91.4802 47.6233 91.2935 48.0667 90.9202 48.44C90.5468 48.8133 90.1035 49 89.5902 49H54.3102Z" fill="#5F5F5F"/>
</svg>
