<svg width="150" height="150" viewBox="0 0 150 150" fill="none" xmlns="http://www.w3.org/2000/svg">
<path d="M74.7812 0.189453L4.36061 24.9722L15.4889 117.234L74.8556 149.863L134.529 116.792L145.653 24.5333L74.7812 0.189453Z" fill="#B3B3B3"/>
<path d="M138.629 29.8656L74.6166 8.03668V142.068L128.262 112.378L138.628 29.8656H138.629Z" fill="#A6120D"/>
<path d="M12.2628 30.2589L21.7989 112.773L74.6156 142.068V8.03448L12.2634 30.2584L12.2628 30.2589Z" fill="#DD1B16"/>
<path d="M92.2372 79.3878L74.6166 87.6278H56.045L47.315 109.464L31.0772 109.764L74.6166 12.9039L92.2372 79.3884V79.3878ZM90.5339 75.2395L74.7339 43.9601L61.7733 74.7012H74.6161L90.5339 75.2401V75.2395Z" fill="#F2F2F2"/>
<path d="M74.6161 12.9033L74.7327 43.96L89.4383 74.725H74.6494L74.6161 87.6078L95.0661 87.6272L104.624 109.767L120.161 110.055L74.6161 12.9033Z" fill="#B3B3B3"/>
</svg>
