<svg width="150" height="169" viewBox="0 0 150 169" fill="none" xmlns="http://www.w3.org/2000/svg">
<path d="M135.936 152.342L74.9996 168.75L14.0619 152.342L0 0H150L135.936 152.342Z" fill="#2062AF"/>
<path d="M74.9989 12.3395V155.663L75.1367 155.701L124.45 142.422L135.833 12.3395H74.9989Z" fill="#3C9CD7"/>
<path d="M74.9449 50.4311L31.3304 68.5954L32.7768 86.5793L74.9449 68.5497L119.801 49.3717L121.661 30.9748L74.9449 50.4311Z" fill="white"/>
<path d="M31.33 68.5954L32.7764 86.5794L74.9445 68.5497V50.4311L31.33 68.5954Z" fill="url(#paint0_linear)"/>
<path d="M121.661 30.9752L74.9449 50.4311V68.5497L119.801 49.3717L121.661 30.9752Z" fill="url(#paint1_linear)"/>
<path d="M31.397 68.5954L32.8439 86.5794L97.5453 86.7856L96.0981 110.764L74.8075 116.758L54.3411 111.59L53.101 96.707H34.084L36.5647 125.44L75.0142 136.808L113.255 125.646L118.217 68.5954H31.397Z" fill="url(#paint2_linear)"/>
<path opacity="0.05" d="M74.9449 68.5954H31.3304L32.7768 86.5794L74.9449 86.714V68.5954ZM74.9449 116.701L74.7382 116.758L54.2744 111.591L53.0343 96.7075H34.0178L36.498 125.44L74.9449 136.809V116.701Z" fill="black"/>
<path d="M27.4025 30.9752H121.661L119.801 49.3721H29.6761L27.4025 30.9752Z" fill="url(#paint3_linear)"/>
<path opacity="0.05" d="M74.945 30.9752H27.4025L29.6761 49.3721H74.945V30.9752Z" fill="black"/>
<defs>
<linearGradient id="paint0_linear" x1="53.1373" y1="86.5798" x2="53.1373" y2="50.4315" gradientUnits="userSpaceOnUse">
<stop offset="0.387" stop-color="#D1D3D4" stop-opacity="0"/>
<stop offset="1" stop-color="#D1D3D4"/>
</linearGradient>
<linearGradient id="paint1_linear" x1="98.3023" y1="68.5502" x2="98.3023" y2="30.9757" gradientUnits="userSpaceOnUse">
<stop offset="0.387" stop-color="#D1D3D4" stop-opacity="0"/>
<stop offset="1" stop-color="#D1D3D4"/>
</linearGradient>
<linearGradient id="paint2_linear" x1="31.397" y1="102.702" x2="118.216" y2="102.702" gradientUnits="userSpaceOnUse">
<stop stop-color="#E8E7E5"/>
<stop offset="1" stop-color="white"/>
</linearGradient>
<linearGradient id="paint3_linear" x1="27.4025" y1="40.1737" x2="121.66" y2="40.1737" gradientUnits="userSpaceOnUse">
<stop stop-color="#E8E7E5"/>
<stop offset="1" stop-color="white"/>
</linearGradient>
</defs>
</svg>
