<svg width="150" height="151" viewBox="0 0 150 151" fill="none" xmlns="http://www.w3.org/2000/svg">
<g clip-path="url(#clip0)">
<path d="M4.68524 0H145.315L131.252 136.575L79.6878 150.704H70.3128L18.7481 136.575L4.68524 0Z" fill="#C63F00"/>
<path d="M75 14.1242H126.564L117.189 122.446L75.0005 136.575C75 136.575 75 14.1242 75 14.1242Z" fill="#FB8028"/>
<path d="M112.586 42.3209L114.062 28.2531H32.6611L34.3016 42.3209L35.8021 61.2538H35.783L37.2037 75.3449H91.7724L89.8975 97.763L75 102.491V102.346L55.1902 97.0848L53.976 84.7314H37.4333L39.6552 107.423V108.35L75 117.737L104.64 108.35H105.001L105.01 108.223L105.076 108.214V107.47L107.757 75.3449H107.818L109.243 61.2538H53.0054L51.5055 42.3209H112.586Z" fill="white"/>
<path d="M75 28.2531H32.6611L34.3016 42.3209L35.8021 61.2538H35.783L37.2037 75.3449H75V61.2538H53.0054L51.5055 42.3209H75V28.2531Z" fill="#E5E5E5"/>
<path d="M75 102.346L55.1902 97.0848L53.976 84.7314H37.4333L39.6552 107.423V108.35L75 117.737V102.491V102.346Z" fill="#E5E5E5"/>
</g>
<defs>
<clipPath id="clip0">
<rect width="150" height="150.704" fill="white"/>
</clipPath>
</defs>
</svg>
