<svg width="150" height="150" viewBox="0 0 150 150" fill="none" xmlns="http://www.w3.org/2000/svg">
<path d="M0 0H150V150H0V0Z" fill="#F7DF1E"/>
<path d="M26.0006 97.2924L37.4791 90.3455C39.694 94.2719 41.7084 97.5942 46.5407 97.5942C51.1725 97.5942 54.0934 95.7824 54.0934 88.7348V40.8062H68.1893V88.934C68.1893 103.534 59.6311 110.179 47.1448 110.179C35.8684 110.179 29.3229 104.339 26 97.2912L26.0006 97.2924ZM75.8457 95.7818L87.3231 89.1367C90.3448 94.0709 94.2717 97.6955 101.219 97.6955C107.06 97.6955 110.784 94.7752 110.784 90.7475C110.784 85.9146 106.958 84.2025 100.514 81.3842L96.9905 79.8725C86.8203 75.5441 80.0745 70.1066 80.0745 58.6281C80.0745 48.0555 88.1293 40 100.716 40C109.677 40 116.121 43.1219 120.753 51.2775L109.777 58.3264C107.36 53.9969 104.743 52.2853 100.715 52.2853C96.5867 52.2853 93.9688 54.9033 93.9688 58.3264C93.9688 62.5551 96.5868 64.2678 102.628 66.8857L106.152 68.3957C118.134 73.5315 124.88 78.7668 124.88 90.5465C124.88 103.234 114.912 110.181 101.52 110.181C88.4311 110.181 79.9737 103.938 75.8457 95.7818Z" fill="black"/>
</svg>
